<svg width="70" height="34" viewBox="0 0 70 34" fill="none" xmlns="http://www.w3.org/2000/svg">
<path d="M65.2949 0.898438H4.06343C1.8473 0.898438 0.0507812 2.69497 0.0507812 4.91109V29.8254C0.0507812 32.0415 1.8473 33.838 4.06343 33.838H65.2949C67.511 33.838 69.3076 32.0415 69.3076 29.8254V4.91109C69.3076 2.69497 67.511 0.898438 65.2949 0.898438Z" fill="black"/>
<path d="M21.8331 12.5664C25.0773 12.5664 27.0295 14.9967 27.0295 17.8189C27.0295 20.6427 25.0773 23.0713 21.8331 23.0713C18.5889 23.0713 16.6367 20.6427 16.6367 17.8189C16.6367 14.9967 18.5889 12.5664 21.8331 12.5664ZM17.9709 17.8189C17.9709 19.9266 19.3332 21.9482 21.8331 21.9482C24.333 21.9482 25.6952 19.9266 25.6952 17.8189C25.6952 15.7128 24.333 13.6895 21.8331 13.6895C19.3332 13.6895 17.9709 15.7128 17.9709 17.8189ZM32.2456 15.4038C34.2961 15.4038 35.56 16.9339 35.56 19.1818C35.56 21.428 34.2961 23.0021 32.2456 23.0021C30.9254 23.0021 30.0126 22.1306 29.7457 21.3858H29.7317V25.6418H28.4677V15.5726H29.7317V17.047H29.7457C30.0126 16.2887 30.9254 15.4038 32.2456 15.4038ZM29.6895 19.1818C29.6895 20.614 30.4199 21.9195 31.9928 21.9195C33.5236 21.9195 34.2961 20.7542 34.2961 19.1818C34.2961 17.6094 33.4815 16.4711 31.9928 16.4711C30.4199 16.4711 29.6895 17.7631 29.6895 19.1818ZM43.2646 20.6697C42.8572 22.215 41.6355 23.0021 40.0204 23.0021C37.8716 23.0021 36.4531 21.4432 36.4531 19.1683C36.4531 16.9761 37.9417 15.4038 39.9922 15.4038C42.5483 15.4038 43.3489 17.4541 43.3769 19.322V19.5466H37.6749C37.7732 21.0632 38.7002 21.9482 39.9922 21.9482C40.9613 21.9482 41.7758 21.5699 42.0287 20.6697H43.2646ZM37.6889 18.5349H42.0989C41.9864 17.2716 41.2844 16.4424 39.9922 16.4424C38.6862 16.4424 37.8574 17.2852 37.6889 18.5349ZM44.775 22.8332V15.5726H46.0389V16.9339C46.4181 16.1063 47.0923 15.4038 48.2157 15.4038C50.1259 15.4038 50.8421 16.6535 50.8421 18.1279V22.8332H49.5782V18.2546C49.5782 16.9761 49.0304 16.4711 48.0473 16.4711C46.98 16.4711 46.0389 17.3696 46.0389 19.2662V22.8332H44.775Z" fill="white"/>
</svg>
