<svg width="58" height="56" viewBox="0 0 58 56" fill="none" xmlns="http://www.w3.org/2000/svg">
<path d="M1 17.8V7C1 3.6863 3.68629 1 7 1H17.8" stroke="#04C48B" stroke-width="1.5" stroke-linecap="round" stroke-linejoin="round"/>
<path d="M57 17.8V7C57 3.6863 54.3137 1 51 1H40.2" stroke="#04C48B" stroke-width="1.5" stroke-linecap="round" stroke-linejoin="round"/>
<path d="M57 37.9598V48.7598C57 52.0735 54.3137 54.7598 51 54.7598H40.2" stroke="#04C48B" stroke-width="1.5" stroke-linecap="round" stroke-linejoin="round"/>
<path d="M1 37.9598V48.7598C1 52.0735 3.68629 54.7598 7 54.7598H17.8" stroke="#04C48B" stroke-width="1.5" stroke-linecap="round" stroke-linejoin="round"/>
<path d="M29.0007 11.334C19.8173 11.334 12.334 18.8173 12.334 28.0007C12.334 37.184 19.8173 44.6673 29.0007 44.6673C38.184 44.6673 45.6673 37.184 45.6673 28.0007C45.6673 18.8173 38.184 11.334 29.0007 11.334ZM36.9673 24.1673L27.5173 33.6173C27.284 33.8507 26.9673 33.984 26.634 33.984C26.3007 33.984 25.984 33.8507 25.7507 33.6173L21.034 28.9007C20.5507 28.4173 20.5507 27.6173 21.034 27.134C21.5173 26.6507 22.3173 26.6507 22.8007 27.134L26.634 30.9673L35.2007 22.4007C35.684 21.9173 36.484 21.9173 36.9673 22.4007C37.4507 22.884 37.4507 23.6673 36.9673 24.1673Z" fill="#04C48B"/>
</svg>
