<svg width="121" height="27" viewBox="0 0 121 27" fill="none" xmlns="http://www.w3.org/2000/svg">
<path d="M2.66691 0.506633C5.55323 0.506633 7.19483 2.18438 7.19483 4.76263C7.19483 7.34089 5.55322 9.3147 2.74122 9.3147H0.0136719V0.506633H2.66691ZM1.18576 8.32771H2.77838C4.56692 8.32771 6.02274 7.1188 6.02274 4.76263C6.02274 2.5051 4.56692 1.49345 2.72772 1.49345H1.18576V8.32771ZM8.44291 4.86126C8.57971 3.93609 9.3566 2.7765 11.0218 2.7765C13.366 2.7765 13.5873 4.2938 13.5873 5.28079V8.01932C13.5873 8.50048 13.6379 9.00631 13.6869 9.3147H12.503C12.4777 9.00631 12.4777 8.74723 12.4777 8.38952V8.14278H12.4659C12.3172 8.6361 11.7869 9.46265 10.3682 9.46265C8.83811 9.46265 8.13554 8.48816 8.13554 7.57531C8.13554 5.77411 10.4054 5.71247 11.3681 5.53986C12.2058 5.39175 12.4777 5.15733 12.4777 4.62685C12.4777 4.09637 11.971 3.714 11.059 3.714C10.2821 3.714 9.70114 4.17051 9.55421 4.86126H8.44291ZM9.23332 7.57531C9.23332 8.17976 9.78896 8.56213 10.5659 8.56213C11.5403 8.56213 12.503 7.93302 12.503 6.3539L12.4895 5.46572C12.3662 5.88524 12.096 6.25527 10.7128 6.50202C9.78896 6.66246 9.23332 6.9337 9.23332 7.57531ZM16.4871 7.52599C16.4871 8.09346 16.808 8.40185 17.3011 8.40185H17.7453V9.3147H17.1897C15.9568 9.3147 15.4011 8.58679 15.4011 7.59997V3.84979H14.452V2.93678H15.4011V1.44413L16.4871 0.950644V2.93678H17.7082V3.84979H16.4871V7.52599ZM18.8887 4.86126C19.0238 3.93609 19.8007 2.7765 21.4676 2.7765C23.8101 2.7765 24.0331 4.2938 24.0331 5.28079V8.01932C24.0331 8.50048 24.082 9.00631 24.131 9.3147H22.9471C22.9218 9.00631 22.9218 8.74723 22.9218 8.38952V8.14278H22.91C22.7613 8.6361 22.231 9.46265 20.8123 9.46265C19.2839 9.46265 18.5796 8.48816 18.5796 7.57531C18.5796 5.77411 20.8495 5.71247 21.8122 5.53986C22.6515 5.39175 22.9218 5.15733 22.9218 4.62685C22.9218 4.09637 22.4168 3.714 21.5031 3.714C20.7262 3.714 20.1469 4.17051 19.9983 4.86126H18.8887ZM19.6774 7.57531C19.6774 8.17976 20.2331 8.56213 21.01 8.56213C21.9844 8.56213 22.9471 7.93302 22.9471 6.3539L22.9353 5.46572C22.812 5.88524 22.5401 6.25527 21.1586 6.50202C20.2331 6.66246 19.6774 6.9337 19.6774 7.57531ZM28.9055 2.78883C30.7058 2.78883 31.8171 4.13352 31.8171 6.10733C31.8171 8.08113 30.7058 9.46265 28.9055 9.46265C27.7452 9.46265 26.9447 8.69792 26.7099 8.04398H26.6964V9.3147H25.5868V0.506633H26.6964V4.23216H26.7099C26.9447 3.56606 27.7452 2.78883 28.9055 2.78883ZM26.661 6.10733C26.661 7.36555 27.3011 8.51281 28.6826 8.51281C30.0286 8.51281 30.7059 7.48884 30.7059 6.10733C30.7059 4.72565 29.9915 3.72634 28.6826 3.72634C27.3011 3.72634 26.661 4.86126 26.661 6.10733ZM34.1056 2.93678V4.21983C34.4265 3.28232 35.0446 2.91212 36.0056 2.91212V3.97308C35.9566 3.97308 35.759 3.98541 35.5985 4.01007C34.8588 4.1212 34.1056 4.45425 34.1056 6.30459V9.3147H32.996V2.93678H34.1056ZM38.1555 1.7402H36.9716V0.506633H38.1555V1.7402ZM36.948 9.3147V2.93678H38.0576V9.3147H36.948ZM45.4296 7.36555C45.0715 8.69792 44.146 9.46265 42.6041 9.46265C40.6179 9.46265 39.3361 8.05631 39.3361 6.13199C39.3361 4.2075 40.6179 2.78883 42.6041 2.78883C44.2339 2.78883 45.1087 3.68935 45.3806 4.84894H44.2693C44.0362 4.26914 43.6039 3.70167 42.5669 3.70167C41.2715 3.70167 40.4457 4.76264 40.4457 6.13199C40.4457 7.48884 41.2715 8.53747 42.5669 8.53747C43.4924 8.53747 44.0227 8.11812 44.3065 7.36555H45.4296ZM47.8042 9.3147H46.6929V0.506633H47.8042V5.7248L50.5672 2.93678H51.9115L49.2465 5.62616L52.0348 9.3147H50.6415L48.4696 6.39106L47.8042 7.0325V9.3147ZM56.4732 4.86126C56.4006 4.03472 55.7081 3.72634 55.0681 3.72634C54.4634 3.72634 53.8588 4.07171 53.8588 4.61452C53.8588 5.10801 54.352 5.39174 54.9076 5.52753L55.7453 5.73712C56.708 5.97154 57.6825 6.42805 57.6825 7.48884C57.6825 8.84586 56.2638 9.46265 55.1542 9.46265C54.0801 9.46265 52.6749 8.96932 52.5635 7.39021H53.6731C53.8217 8.20442 54.3267 8.52514 55.1914 8.52514C55.8196 8.52514 56.5729 8.30305 56.5729 7.56298C56.5729 7.02017 56.0426 6.83507 55.4379 6.68712L54.5496 6.46503C53.5987 6.23061 52.7475 5.65082 52.7475 4.66384C52.7475 3.46726 53.9821 2.78883 55.1052 2.78883C56.3499 2.78883 57.4477 3.45493 57.571 4.86126H56.4732ZM62.261 9.3147H61.0518L64.3333 0.506633H65.8026L69.0825 9.3147H67.8749L66.9122 6.73644H63.2355L62.261 9.3147ZM63.5817 5.77411H66.566L65.0866 1.55527H65.0494L63.5817 5.77411ZM70.2377 0.506633H71.4098V9.3147H70.2377V0.506633ZM76.821 6.58832C76.8699 7.90836 77.7701 8.53747 79.0537 8.53747C80.0907 8.53747 80.979 8.0563 80.979 6.98319C80.979 5.89757 80.0653 5.71246 78.9557 5.37942C77.4999 4.94757 76.0187 4.51589 75.9816 2.85048C75.9444 1.14808 77.3513 0.296875 78.9422 0.296875C80.7071 0.296875 81.8657 1.18506 82.0025 2.94911H80.8186C80.6581 1.839 80.1025 1.28386 78.9422 1.28386C77.9677 1.28386 77.1537 1.69088 77.1537 2.76417C77.1537 3.66469 78.0167 4.01007 79.177 4.34312C80.6446 4.76264 82.1494 5.08335 82.1494 6.9462C82.1494 8.74723 80.6328 9.52446 79.0537 9.52446C77.13 9.52446 75.6742 8.59912 75.6489 6.58832H76.821ZM89.0975 7.41487C88.7394 8.77189 87.667 9.46265 86.2483 9.46265C84.3602 9.46265 83.1155 8.09346 83.1155 6.095C83.1155 4.17051 84.4226 2.78883 86.223 2.78883C88.4692 2.78883 89.1718 4.58986 89.1971 6.23062V6.42805H84.1879C84.274 7.76024 85.0881 8.53747 86.223 8.53747C87.0742 8.53747 87.7903 8.20442 88.0115 7.41487H89.0975ZM84.1997 5.53986H88.074C87.9744 4.42959 87.3579 3.70167 86.223 3.70167C85.0762 3.70167 84.3483 4.44192 84.1997 5.53986ZM96.1233 7.36555C95.7669 8.69792 94.8414 9.46265 93.2995 9.46265C91.3133 9.46265 90.0298 8.05631 90.0298 6.13199C90.0298 4.2075 91.3133 2.78883 93.2995 2.78883C94.9275 2.78883 95.8024 3.68935 96.0743 4.84894H94.9647C94.7299 4.26914 94.2976 3.70167 93.2623 3.70167C91.9669 3.70167 91.1394 4.76264 91.1394 6.13199C91.1394 7.48884 91.9669 8.53747 93.2623 8.53747C94.1878 8.53747 94.7181 8.11812 95.0018 7.36555H96.1233ZM97.3376 7.06949V2.93678H98.4489V6.95853C98.4489 8.08113 98.9302 8.52514 99.7932 8.52514C100.731 8.52514 101.558 7.73559 101.558 6.07017V2.93678H102.668V9.3147H101.558V8.11812C101.224 8.84586 100.633 9.46265 99.6446 9.46265C97.9675 9.46265 97.3376 8.36487 97.3376 7.06949ZM105.353 2.93678V4.21983C105.674 3.28232 106.29 2.91212 107.253 2.91212V3.97308C107.202 3.97308 107.006 3.98541 106.846 4.01007C106.105 4.1212 105.353 4.45425 105.353 6.30459V9.3147H104.242V2.93678H105.353ZM109.403 1.7402H108.219V0.506633H109.403V1.7402ZM108.194 9.3147V2.93678H109.305V9.3147H108.194ZM112.321 7.52599C112.321 8.09346 112.642 8.40185 113.135 8.40185H113.58V9.3147H113.024C111.791 9.3147 111.235 8.58679 111.235 7.59997V3.84979H110.286V2.93678H111.235V1.44413L112.321 0.950644V2.93678H113.542V3.84979H112.321V7.52599ZM115.361 2.93678L117.385 8.21675H117.397L119.21 2.93678H120.394L117.508 10.5483C117.224 11.3132 116.755 11.782 115.892 11.782H115.029V10.8443H115.731C116.348 10.8443 116.447 10.4989 116.631 10.0424L116.854 9.4873C115.966 7.30391 115.066 5.12034 114.177 2.93678H115.361ZM0.0136719 24.5147V15.7066H5.44176V16.6935H1.18576V19.5431H5.0854V20.5301H1.18576V24.5147H0.0136719ZM7.45829 18.1368V19.4198C7.77918 18.4823 8.39562 18.1121 9.35829 18.1121V19.1731C9.30931 19.1731 9.11172 19.1854 8.95127 19.2101C8.20985 19.3212 7.45829 19.6542 7.45829 21.5046V24.5147H6.34701V18.1368H7.45829ZM10.0828 20.0613C10.2179 19.1361 10.9948 17.9765 12.6601 17.9765C15.0042 17.9765 15.2255 19.4938 15.2255 20.4808V23.2193C15.2255 23.7005 15.2762 24.2063 15.3251 24.5147H14.1412C14.1159 24.2063 14.1159 23.9472 14.1159 23.5895V23.3428H14.1041C13.9555 23.8361 13.4251 24.6626 12.0065 24.6626C10.4763 24.6626 9.77376 23.6882 9.77376 22.7753C9.77376 20.9741 12.0436 20.9125 13.0063 20.7399C13.844 20.5917 14.1159 20.3573 14.1159 19.8268C14.1159 19.2964 13.6109 18.914 12.6972 18.914C11.9203 18.914 11.341 19.3705 11.1924 20.0613H10.0828ZM10.8715 22.7753C10.8715 23.3798 11.4272 23.7621 12.2041 23.7621C13.1786 23.7621 14.1412 23.133 14.1412 21.5539L14.1277 20.6657C14.0044 21.0852 13.7342 21.4553 12.3527 21.702C11.4272 21.8625 10.8715 22.1337 10.8715 22.7753ZM16.781 24.5147V18.1368H17.8906V19.2224C18.0139 18.6426 18.6438 17.9888 19.5068 17.9888C20.5438 17.9888 21.1349 18.3835 21.4322 19.2594C21.8257 18.3958 22.4067 17.9888 23.2579 17.9888C24.8116 17.9888 25.4163 19.0868 25.4163 20.382V24.5147H24.305V20.4931C24.305 19.3705 23.849 18.9263 23.1092 18.9263C22.2952 18.9263 21.6416 19.7159 21.6416 21.3813V24.5147H20.5303V20.4931C20.5303 19.3705 20.2229 18.9263 19.3582 18.9263C18.2233 18.9263 17.8906 20.0489 17.8906 21.3813V24.5147H16.781ZM32.5366 22.6149C32.1786 23.9719 31.1061 24.6626 29.6874 24.6626C27.7993 24.6626 26.5529 23.2935 26.5529 21.295C26.5529 19.3705 27.8617 17.9888 29.6621 17.9888C31.9066 17.9888 32.6109 19.7899 32.6346 21.4306V21.628H27.627C27.7132 22.9602 28.5272 23.7375 29.6621 23.7375C30.5133 23.7375 31.2294 23.4044 31.4506 22.6149H32.5366ZM27.6388 20.7399H31.5131C31.4135 19.6296 30.797 18.9017 29.6621 18.9017C28.5153 18.9017 27.7874 19.6419 27.6388 20.7399ZM34.999 24.5147L33.1733 18.1368H34.3319L35.3554 22.0597C35.455 22.4546 35.5293 22.8493 35.6273 23.244H35.6391C35.7387 22.8616 35.8131 22.4546 35.911 22.0721L36.9598 18.1368H38.4156L39.4509 22.0597L39.7481 23.2563H39.76L40.0437 22.0597L41.0554 18.1368H42.2156L40.3764 24.5147H39.1064L37.9715 20.3327L37.6877 19.2471H37.6759C37.5763 19.6173 37.5019 19.9626 37.404 20.3327L36.269 24.5147H34.999ZM45.9042 24.6626C43.967 24.6626 42.7088 23.207 42.7088 21.332C42.7088 19.4568 43.967 17.9888 45.9042 17.9888C47.8413 17.9888 49.0995 19.4568 49.0995 21.332C49.0995 23.207 47.8413 24.6626 45.9042 24.6626ZM43.8184 21.332C43.8184 22.6395 44.6578 23.7251 45.9042 23.7251C47.1506 23.7251 47.9883 22.6395 47.9883 21.332C47.9883 20.012 47.1506 18.9263 45.9042 18.9263C44.6578 18.9263 43.8184 20.012 43.8184 21.332ZM51.393 18.1368V19.4198C51.7139 18.4823 52.3321 18.1121 53.293 18.1121V19.1731C53.2441 19.1731 53.0465 19.1854 52.886 19.2101C52.1463 19.3212 51.393 19.6542 51.393 21.5046V24.5147H50.2835V18.1368H51.393ZM55.465 24.5147H54.3554V15.7066H55.465V20.9248L58.2297 18.1368H59.574L56.909 20.8262L59.6973 24.5147H58.3023L56.1321 21.5911L55.465 22.2325V24.5147ZM65.1676 26.9572C63.9837 25.1192 63.2305 23.3428 63.2305 21.1839C63.2305 19.2471 63.8976 17.1869 65.1676 15.4969H66.1421C65.0815 17.3597 64.3418 19.1731 64.3418 21.1839C64.3418 23.2563 65.0933 25.0698 66.1421 26.9572H65.1676ZM69.7563 15.7066C72.6443 15.7066 74.2842 17.3844 74.2842 19.9626C74.2842 22.5409 72.6443 24.5147 69.8307 24.5147H67.1048V15.7066H69.7563ZM68.2769 23.5277H69.8678C71.6563 23.5277 73.1122 22.3188 73.1122 19.9626C73.1122 17.7051 71.6563 16.6935 69.8188 16.6935H68.2769V23.5277ZM75.887 24.5147H74.6778L77.9593 15.7066H79.4269L82.7084 24.5147H81.4992L80.5382 21.9364H76.8615L75.887 24.5147ZM77.206 20.9741H80.192L78.7108 16.7553H78.6754L77.206 20.9741ZM84.4581 21.7883C84.5088 23.1084 85.409 23.7375 86.6908 23.7375C87.7278 23.7375 88.6162 23.2563 88.6162 22.1832C88.6162 21.0976 87.7025 20.9125 86.5929 20.5794C85.137 20.1476 83.6576 19.7159 83.6204 18.0505C83.5833 16.3481 84.9884 15.4969 86.5811 15.4969C88.3443 15.4969 89.5045 16.3851 89.6396 18.1491H88.4557C88.2953 17.039 87.7396 16.4839 86.5811 16.4839C85.6066 16.4839 84.7925 16.8909 84.7925 17.9642C84.7925 18.8647 85.6555 19.2101 86.8158 19.5431C88.2834 19.9626 89.7883 20.2834 89.7883 22.1462C89.7883 23.9472 88.27 24.7245 86.6908 24.7245C84.7672 24.7245 83.3114 23.7991 83.286 21.7883H84.4581ZM91.2947 24.5147V15.7066H96.7228V16.6935H92.4668V19.5431H96.3648V20.5301H92.4668V24.5147H91.2947ZM97.4659 26.9572C98.5147 25.0698 99.268 23.2563 99.268 21.1839C99.268 19.1731 98.5266 17.3597 97.4659 15.4969H98.4404C99.7122 17.1869 100.378 19.2471 100.378 21.1839C100.378 23.3428 99.6243 25.1192 98.4404 26.9572H97.4659Z" fill="black"/>
</svg>
